<?xml version="1.0" standalone="no"?>
<!DOCTYPE svg PUBLIC "-//W3C//DTD SVG 20010904//EN"
 "http://www.w3.org/TR/2001/REC-SVG-20010904/DTD/svg10.dtd">
<svg version="1.0" xmlns="http://www.w3.org/2000/svg"
 width="294.000000pt" height="294.000000pt" viewBox="0 0 294.000000 294.000000"
 preserveAspectRatio="xMidYMid meet">
<metadata>
Created by potrace 1.11, written by Peter Selinger 2001-2013
</metadata>
<g transform="translate(0.000000,294.000000) scale(0.100000,-0.100000)"
fill="#000000" stroke="none">
<path d="M331 2774 c-64 -23 -110 -54 -164 -113 -73 -78 -91 -126 -92 -246 0
-91 3 -105 29 -157 37 -74 105 -141 180 -178 53 -27 69 -30 156 -30 88 0 102
3 156 30 138 70 217 192 216 335 -1 155 -81 279 -220 343 -73 33 -194 41 -261
16z"/>
<path d="M1363 2772 c-152 -54 -254 -196 -254 -351 0 -36 5 -82 11 -101 5 -19
10 -40 10 -47 0 -17 -505 -484 -523 -483 -1 0 -24 7 -52 16 -141 43 -313 -10
-404 -124 -57 -73 -75 -127 -75 -232 -1 -88 2 -100 32 -162 41 -84 120 -158
200 -188 83 -31 215 -26 292 12 71 35 143 107 178 177 25 52 27 66 28 180 l1
124 89 86 c130 125 354 334 392 366 30 25 36 27 75 17 106 -27 195 -20 281 22
60 30 140 105 167 159 l19 37 170 0 170 0 21 -42 c28 -55 106 -130 166 -159
42 -21 63 -24 158 -24 100 0 115 3 160 27 63 33 134 104 171 171 27 48 29 60
29 157 0 99 -2 110 -32 171 -39 79 -102 140 -181 177 -49 23 -70 27 -147 27
-77 0 -98 -4 -147 -27 -70 -33 -134 -90 -173 -157 l-30 -51 -167 0 -166 0 -30
53 c-63 112 -172 177 -307 184 -60 3 -93 -1 -132 -15z"/>
<path d="M1363 1792 c-104 -37 -199 -137 -229 -240 -25 -85 -16 -203 21 -270
39 -72 105 -135 178 -172 54 -27 70 -30 151 -30 80 0 99 4 153 29 78 37 147
105 181 179 24 50 27 69 27 162 0 94 -3 110 -27 155 -35 67 -110 140 -178 172
-74 36 -200 42 -277 15z"/>
<path d="M2449 1795 c-114 -23 -211 -98 -266 -205 -26 -51 -28 -64 -29 -178
-2 -145 21 -109 -209 -325 -82 -77 -177 -166 -210 -197 -33 -31 -65 -60 -72
-64 -7 -3 -39 0 -71 8 -71 19 -133 23 -187 12 -96 -19 -224 -115 -260 -197
l-18 -39 -167 0 -167 0 -18 40 c-10 23 -47 67 -81 100 -81 76 -144 100 -258
100 -75 0 -90 -3 -153 -35 -83 -41 -144 -103 -181 -183 -23 -49 -27 -70 -27
-152 0 -85 3 -101 28 -149 40 -75 106 -142 174 -176 79 -40 211 -47 293 -16
78 30 145 83 186 146 l35 55 173 0 174 0 12 -29 c18 -46 108 -128 174 -161 53
-27 69 -30 151 -30 83 0 98 3 153 31 78 38 142 103 179 177 26 52 28 66 28
172 l0 115 31 30 c56 54 307 290 393 369 58 54 88 75 100 71 69 -27 138 -37
197 -27 163 27 287 141 318 292 34 167 -46 334 -194 410 -86 43 -146 53 -231
35z"/>
<path d="M2468 848 c-116 -15 -232 -99 -289 -209 -35 -67 -39 -203 -8 -284 31
-84 130 -183 214 -214 78 -30 214 -26 288 7 131 58 232 221 221 356 -18 215
-212 372 -426 344z"/>
</g>
</svg>
